<?xml version="1.0" encoding="UTF-8"?>
<svg id="Financial_Stamp" xmlns="http://www.w3.org/2000/svg" viewBox="0 0 543.37 314.33">
  <defs>
    <style>
      .cls-1 {
        fill: #273881;
      }

      .cls-2 {
        stroke-width: .25px;
      }

      .cls-2, .cls-3 {
        stroke: #2a3583;
      }

      .cls-2, .cls-3, .cls-4 {
        fill: #2a3583;
      }

      .cls-2, .cls-3, .cls-5 {
        stroke-miterlimit: 10;
      }

      .cls-3 {
        stroke-width: .75px;
      }

      .cls-6 {
        fill: #263880;
      }

      .cls-5 {
        fill: none;
        stroke: #273881;
        stroke-width: 4px;
      }
    </style>
  </defs>
  <polyline class="cls-5" points="490 12.91 122.94 12.91 113.61 22.68"/>
  <polyline class="cls-5" points="16.48 120.25 8.34 128.17 8.34 313.33 505.46 313.33 524.21 295.17 542.37 277.37 542.37 12.91 487.6 12.91"/>

  <g>
    <polygon class="cls-1" points="542.37 35.52 534.99 28.13 534.99 20.29 527.14 20.29 519.76 12.91 542.37 12.91 542.37 35.52"/>
    <polygon class="cls-1" points="542.37 35.52 534.99 28.13 534.99 20.29 527.14 20.29 519.76 12.91 542.37 12.91 542.37 35.52"/>
  </g>
  <g>
    <polygon class="cls-1" points="8.34 290.72 15.72 298.1 15.72 305.95 23.56 305.95 30.95 313.33 8.34 313.33 8.34 290.72"/>
    <polygon class="cls-1" points="8.34 290.72 15.72 298.1 15.72 305.95 23.56 305.95 30.95 313.33 8.34 313.33 8.34 290.72"/>
  </g>
</svg>